# xmcd
#
# Track frame offsets: 
#        150
#        18900
#        35609
#        54623
#        72058
#        89267
#        106499
#        124718
#        143853
#        165189
#        181453
#
# Disc length: 2666 seconds
#
# Revision: 0
# Processed by: cddbd v1.5.2PL0 Copyright (c) Steve Scherf et al.
# Submitted via: ExactAudioCopy v0.99pb5
#
DISCID=8c0a680b
DTITLE=Reamonn - Eleven
DYEAR=2010
DGENRE=Vocal
TTITLE0=Yesterday
TTITLE1=Colder
TTITLE2=Let The Morning Sleep
TTITLE3=Through The Eyes Of A Child
TTITLE4=Million Miles
TTITLE5=Moment Like This
TTITLE6=Aeroplane
TTITLE7=Open Skies
TTITLE8=Promise (Extended Version)
TTITLE9=Tonight
TTITLE10=Serpentine
EXTD=
EXTT0=
EXTT1=
EXTT2=
EXTT3=
EXTT4=
EXTT5=
EXTT6=
EXTT7=
EXTT8=
EXTT9=
EXTT10=
PLAYORDER=
